<?xml version="1.0" encoding="UTF-8" standalone="no"?>
<!-- Created with Inkscape (http://www.inkscape.org/) -->

<svg
   width="125mm"
   height="160mm"
   viewBox="0 0 125 160"
   version="1.1"
   id="svg1"
   sodipodi:docname="receipt_template_TP.svg"
   inkscape:version="1.4.2 (f4327f4, 2025-05-13)"
   xmlns:inkscape="http://www.inkscape.org/namespaces/inkscape"
   xmlns:sodipodi="http://sodipodi.sourceforge.net/DTD/sodipodi-0.dtd"
   xmlns="http://www.w3.org/2000/svg"
   xmlns:svg="http://www.w3.org/2000/svg">
  <sodipodi:namedview
     id="namedview1"
     pagecolor="#ffffff"
     bordercolor="#000000"
     borderopacity="0.25"
     inkscape:showpageshadow="2"
     inkscape:pageopacity="0.0"
     inkscape:pagecheckerboard="0"
     inkscape:deskcolor="#d1d1d1"
     inkscape:document-units="mm"
     inkscape:zoom="4.0000001"
     inkscape:cx="60.124998"
     inkscape:cy="169.625"
     inkscape:window-width="1920"
     inkscape:window-height="1009"
     inkscape:window-x="-8"
     inkscape:window-y="-8"
     inkscape:window-maximized="1"
     inkscape:current-layer="layer1"
     showgrid="true">
    <sodipodi:guide
       position="0,160"
       orientation="0,472.44094"
       id="guide14"
       inkscape:locked="false" />
    <sodipodi:guide
       position="125,160"
       orientation="604.72441,0"
       id="guide15"
       inkscape:locked="false" />
    <sodipodi:guide
       position="125,0"
       orientation="0,-472.44094"
       id="guide16"
       inkscape:locked="false" />
    <sodipodi:guide
       position="0,0"
       orientation="-604.72441,0"
       id="guide17"
       inkscape:locked="false" />
  </sodipodi:namedview>
  <defs
     id="defs1">
    <rect
       x="33.234018"
       y="113.84419"
       width="110.30865"
       height="21.92031"
       id="rect12" />
    <rect
       x="290.3368"
       y="99.089306"
       width="26.184221"
       height="29.008009"
       id="rect8" />
    <rect
       x="154.65504"
       y="35.57792"
       width="164.09408"
       height="48.64736"
       id="rect1" />
  </defs>
  <g
     inkscape:label="Layer 1"
     inkscape:groupmode="layer"
     id="layer1">
    <path
       d="m 198.75781,46.526089 h -1.11914 v -3.369141 q 0,-0.685547 -0.15234,-1.078125 -0.15235,-0.392578 -0.60938,-0.626953 -0.45703,-0.240234 -1.3125,-0.240234 -0.49804,0 -1.11328,0.08203 v 5.232422 h -1.11914 v -6.082031 q 1.25391,-0.205079 2.30274,-0.205079 1.14843,0 1.8457,0.339844 0.70312,0.333985 0.99023,0.896485 0.28711,0.5625 0.28711,1.570312 z m -7.21289,0 h -3 v -0.9375 h 1.88086 v -3.046875 q 0,-0.503906 -0.0762,-0.761719 -0.0762,-0.263672 -0.32813,-0.421875 -0.24609,-0.158203 -0.66211,-0.158203 -0.35742,0 -0.63867,0.05859 l -0.082,-0.890625 q 0.39258,-0.128907 0.96094,-0.128907 0.79687,0 1.21875,0.298829 0.42187,0.298828 0.57422,0.738281 0.15234,0.433594 0.15234,1.230469 z m -4.25976,-6.216797 v 3.216797 h -1.14258 v -3.216797 z m -2.92969,6.216797 h -3 v -0.9375 h 1.88086 v -3.046875 q 0,-0.503906 -0.0762,-0.761719 -0.0762,-0.263672 -0.32813,-0.421875 -0.24609,-0.158203 -0.66211,-0.158203 -0.35742,0 -0.63867,0.05859 l -0.082,-0.890625 q 0.39258,-0.128907 0.96094,-0.128907 0.79687,0 1.21875,0.298829 0.42187,0.298828 0.57421,0.738281 0.15235,0.433594 0.15235,1.230469 z m -3.67383,0 h -1.38281 l -2.37305,-3.357422 q -0.55078,0.298828 -0.65039,1.207031 l -0.25195,2.150391 h -1.16016 l 0.25195,-2.150391 q 0.17579,-1.5 1.21875,-2.027344 l -1.44726,-2.039062 h 1.37695 l 1.99219,2.783203 q 0.36328,-0.240234 0.50391,-0.539062 0.14648,-0.304688 0.22851,-0.996094 l 0.14649,-1.248047 h 1.16015 l -0.14062,1.283203 q -0.0937,0.826172 -0.375,1.359375 -0.27539,0.527344 -0.96094,0.943359 z m -10.76953,-4.019531 v 1.910156 l 0.57422,2.109375 h -1.09571 l -0.42773,-1.523438 q -0.7207,0 -1.20117,0.873047 l -0.3457,0.650391 h -1.14258 l 0.49218,-0.960938 q 0.43946,-0.855468 1.01954,-1.11914 0.58007,-0.269532 1.00781,-0.269532 v -1.634765 q 0,-0.503906 -0.0762,-0.761719 -0.0703,-0.263672 -0.32227,-0.421875 -0.25195,-0.158203 -0.66797,-0.158203 -0.35742,0 -0.63867,0.05859 l -0.082,-0.890625 q 0.39258,-0.128907 0.96094,-0.128907 0.79687,0 1.21875,0.298829 0.42187,0.298828 0.57422,0.738281 0.15234,0.433594 0.15234,1.230469 z m -4.69336,-2.197266 v 6.216797 h -1.14258 v -6.216797 z m -6.14063,0 h 3.44532 v 1.546875 q 0,0.65625 -0.12305,1.066406 -0.12305,0.404297 -0.42773,0.820313 l -0.31641,0.421875 q -0.47461,0.638672 -0.47461,1.365234 v 0.996094 h -1.11914 v -0.837891 q 0,-0.755859 0.14648,-1.136719 0.15235,-0.380859 0.43946,-0.75 L 161,43.356167 q 0.25781,-0.328125 0.32812,-0.591797 0.0762,-0.263672 0.0762,-0.679687 v -0.837891 h -3.43946 v -3.310547 h 1.11328 z m -2.37304,0 v 8.607422 h -1.14258 v -8.607422 z"
       id="text1"
       style="white-space:pre"
       transform="matrix(0.64261594,0,0,0.54642476,-51.507569,-11.460441)"
       aria-label="חנינא גולן" />
    <path
       d="m 112.0625,19.006892 q 0.23875,-0.03411 0.43873,-0.03411 0.4992,0 0.69453,0.193787 0.19689,0.192236 0.19689,0.58136 v 0.888318 h -0.29455 v -0.809253 q 0,-0.224793 -0.0481,-0.339515 -0.0481,-0.114721 -0.18449,-0.186035 -0.13642,-0.07131 -0.38137,-0.07131 -0.16588,0 -0.39688,0.03101 z m -0.2868,1.629358 h -0.29611 v -0.891419 q 0,-0.181384 -0.0403,-0.285254 -0.0403,-0.103869 -0.16123,-0.165881 -0.12092,-0.06356 -0.34726,-0.06356 -0.13178,0 -0.29456,0.0217 v 1.384412 h -0.29611 v -1.609205 q 0.33177,-0.05426 0.60927,-0.05426 0.30386,0 0.48834,0.08992 0.18604,0.08837 0.262,0.237195 0.076,0.148828 0.076,0.415479 z m -2.0712,-1.468128 -0.0713,-0.42478 V 18.36352 h 0.31781 v 0.379822 l -0.0744,0.42478 z m -1.3255,1.468128 h -0.79375 v -0.248047 h 0.49765 V 19.58205 q 0,-0.133325 -0.0202,-0.201538 -0.0202,-0.06976 -0.0868,-0.111621 -0.0651,-0.04186 -0.17519,-0.04186 -0.0946,0 -0.16898,0.0155 l -0.0217,-0.235644 q 0.10387,-0.03411 0.25425,-0.03411 0.21084,0 0.32246,0.07907 0.11162,0.07906 0.15193,0.195337 0.0403,0.114722 0.0403,0.325562 z m -1.12706,-1.644861 v 1.644861 h -0.30231 v -1.644861 z m -2.09755,0.0155 q 0.23875,-0.03411 0.43874,-0.03411 0.49919,0 0.69453,0.193787 0.19689,0.192236 0.19689,0.58136 v 0.888318 h -0.29456 v -0.809253 q 0,-0.224793 -0.0481,-0.339515 -0.0481,-0.114721 -0.18448,-0.186035 -0.13643,-0.07131 -0.38138,-0.07131 -0.16588,0 -0.39687,0.03101 z m -0.13177,0.232544 h -0.2806 v 1.396814 h -0.29456 v -1.396814 h -0.89917 v -0.248047 h 1.47433 z m -1.62936,1.396814 h -0.36587 l -0.62787,-0.888318 q -0.14572,0.07906 -0.17208,0.31936 l -0.0667,0.568958 h -0.30696 l 0.0667,-0.568958 q 0.0465,-0.396875 0.32246,-0.536401 l -0.38292,-0.539502 h 0.36432 l 0.5271,0.736389 q 0.0961,-0.06356 0.13333,-0.142627 0.0387,-0.08061 0.0605,-0.26355 l 0.0388,-0.330212 h 0.30696 l -0.0372,0.339514 q -0.0248,0.218591 -0.0992,0.359668 -0.0729,0.139526 -0.25425,0.249597 z m -1.94252,-1.644861 v 1.644861 h -0.3023 v -1.644861 z"
       id="text2"
       style="font-size:3.175px;stroke-width:0.264583"
       aria-label="רח' נורדאו  " />
    <path
       d="m 97.540529,20.046972 q 0,0.351916 -0.232544,0.575158 -0.230994,0.221692 -0.567407,0.221692 -0.170533,0 -0.310059,-0.05271 -0.139526,-0.05271 -0.246496,-0.156579 -0.133326,-0.128675 -0.206189,-0.341065 -0.07131,-0.21239 -0.07131,-0.511597 0,-0.306958 0.06511,-0.544152 0.06666,-0.237195 0.21084,-0.42168 0.136426,-0.175183 0.351917,-0.272852 0.21549,-0.09922 0.502295,-0.09922 0.09147,0 0.153479,0.0078 0.06201,0.0078 0.125573,0.0279 v 0.296106 h -0.0155 q -0.04341,-0.02325 -0.131774,-0.04341 -0.08682,-0.0217 -0.178284,-0.0217 -0.333313,0 -0.531751,0.20929 -0.198437,0.207739 -0.230993,0.562756 0.130224,-0.07906 0.255798,-0.119373 0.127124,-0.04186 0.293005,-0.04186 0.147278,0 0.258899,0.02791 0.113172,0.02635 0.230994,0.10852 0.136426,0.09457 0.204639,0.238745 0.06976,0.144178 0.06976,0.350367 z m -0.31471,0.0124 q 0,-0.144177 -0.04341,-0.238745 -0.04186,-0.09457 -0.139526,-0.164331 -0.07131,-0.04961 -0.15813,-0.06511 -0.08682,-0.0155 -0.181384,-0.0155 -0.131775,0 -0.244947,0.03101 -0.113171,0.03101 -0.232544,0.09612 -0.0031,0.03411 -0.0046,0.06666 -0.0016,0.03101 -0.0016,0.07906 0,0.244946 0.04961,0.387573 0.05116,0.141077 0.139526,0.223242 0.07131,0.06821 0.153479,0.100769 0.08372,0.03101 0.181384,0.03101 0.224793,0 0.353467,-0.136425 0.128674,-0.137977 0.128674,-0.395325 z m 2.16731,0.736389 h -1.249536 v -0.235645 h 0.480591 v -1.547192 h -0.480591 v -0.21084 q 0.09767,0 0.209289,-0.0155 0.111622,-0.01705 0.168982,-0.04806 0.07131,-0.03876 0.111621,-0.09767 0.04186,-0.06046 0.04806,-0.161231 h 0.240295 v 2.080493 h 0.471289 z"
       id="text3"
       style="font-size:3.175px;stroke-width:0.264583"
       aria-label="61" />
    <path
       d="m 92.259384,18.974295 q 0.238745,-0.03411 0.438733,-0.03411 0.499194,0 0.694531,0.193786 0.196888,0.192237 0.196888,0.58136 v 0.888318 H 93.29498 V 19.7944 q 0,-0.224792 -0.04806,-0.339514 -0.04806,-0.114722 -0.184485,-0.186035 -0.136426,-0.07131 -0.381372,-0.07131 -0.165882,0 -0.396875,0.03101 z m -0.147278,1.629358 h -0.365869 l -0.627869,-0.888318 q -0.145727,0.07906 -0.172082,0.31936 l -0.06666,0.568958 h -0.306958 l 0.06666,-0.568958 q 0.04651,-0.396875 0.322461,-0.536401 l -0.382923,-0.539502 h 0.364319 l 0.5271,0.736389 q 0.09612,-0.06356 0.133325,-0.142627 0.03876,-0.08062 0.06046,-0.263549 l 0.03876,-0.330213 h 0.306958 l -0.03721,0.339514 q -0.02481,0.218592 -0.09922,0.359668 -0.07286,0.139527 -0.254248,0.249597 z m -3.450952,-1.644861 0.0062,0.266651 q 0.0093,0.410827 0.03566,0.568957 0.164331,0 0.296106,-0.08216 0.131775,-0.08217 0.131775,-0.311609 l 0.03256,-0.441834 h 0.297656 l -0.03721,0.517798 q -0.0093,0.131775 -0.02945,0.199988 -0.02015,0.06821 -0.08372,0.144177 -0.06201,0.07596 -0.198438,0.133325 -0.134875,0.05581 -0.364318,0.07441 0.03876,0.167432 0.179834,0.268201 0.141076,0.100769 0.347265,0.100769 0.190686,0 0.327112,-0.08992 0.136426,-0.09147 0.201538,-0.234094 0.06511,-0.144177 0.08682,-0.409278 l 0.06666,-0.705383 h 0.297656 l -0.05581,0.609265 q -0.03256,0.342615 -0.116272,0.570508 -0.08372,0.227893 -0.291455,0.36897 -0.206189,0.141076 -0.533301,0.141076 -0.289905,0 -0.486792,-0.139526 -0.195337,-0.141077 -0.293005,-0.401526 -0.09612,-0.260449 -0.09612,-0.694531 l -0.0217,-0.454236 z m -1.53789,0 h 0.911572 v 0.409277 q 0,0.173633 -0.03256,0.282154 -0.03256,0.10697 -0.113172,0.217041 l -0.08372,0.111621 q -0.125573,0.168982 -0.125573,0.361218 v 0.26355 h -0.296106 v -0.221692 q 0,-0.199988 0.03876,-0.300757 0.04031,-0.100769 0.116272,-0.198437 l 0.09302,-0.117823 q 0.06821,-0.08682 0.08682,-0.156579 0.02015,-0.06976 0.02015,-0.179834 v -0.221692 h -0.910022 v -0.875916 h 0.294556 z m -1.291394,0.176734 -0.07751,-0.432532 v -0.372071 h 0.31781 v 0.372071 l -0.06976,0.432532 z m 0.513147,0 -0.07596,-0.432532 v -0.372071 h 0.31781 v 0.372071 l -0.07441,0.432532 z m -1.666565,2.100646 v -1.254187 l -0.496094,-1.023193 h 0.314709 l 0.396875,0.820105 q 0.122473,-0.07286 0.172083,-0.16123 0.04961,-0.08992 0.06511,-0.240296 l 0.04496,-0.418579 h 0.308508 l -0.05116,0.47594 q -0.04496,0.418579 -0.463537,0.58136 v 1.22008 z"
       id="text4"
       style="font-size:3.175px;stroke-width:0.264583"
       aria-label="ראשל&quot;ץ" />
    <path
       d="m 30.323818,19.674821 v -0.31781 h 0.31781 v 0.31781 z m 0,1.328601 v -0.31781 h 0.31781 v 0.31781 z m 0.806153,-1.468128 -0.07131,-0.42478 v -0.379822 h 0.31781 v 0.379822 l -0.07441,0.42478 z m 2.082043,-0.176733 h 0.296106 v 0.854211 c 0,0.242879 0.04444,0.403076 0.133325,0.480591 0.08992,0.07751 0.19017,0.116272 0.300757,0.116272 0.117822,0 0.21084,-0.02739 0.279053,-0.08216 0.06925,-0.05478 0.114204,-0.126094 0.134875,-0.213941 0.02067,-0.08785 0.03101,-0.206189 0.03101,-0.355017 v -0.209289 c 0,-0.240813 -0.06976,-0.361219 -0.20929,-0.361219 -0.09819,0 -0.188102,0.05478 -0.269751,0.164331 l -0.09302,-0.151928 c 0.111621,-0.183968 0.253731,-0.275952 0.42633,-0.275952 0.144694,0 0.254248,0.05684 0.328663,0.170532 0.07441,0.113688 0.111621,0.280086 0.111621,0.499194 v 0.117822 c 0,0.212907 -0.02067,0.379306 -0.06201,0.499195 -0.04031,0.119889 -0.118338,0.222725 -0.234094,0.308508 -0.114722,0.08578 -0.262517,0.128674 -0.443384,0.128674 -0.159163,0 -0.297656,-0.03927 -0.415479,-0.117822 -0.116789,-0.07855 -0.198437,-0.177767 -0.244946,-0.297656 -0.04651,-0.119889 -0.06976,-0.287321 -0.06976,-0.502295 z m -1.299146,0 h 0.911573 v 0.409277 c 0,0.115755 -0.01085,0.209807 -0.03256,0.282154 -0.02171,0.07131 -0.05943,0.14366 -0.113172,0.217041 l -0.08372,0.111621 c -0.08371,0.112655 -0.125573,0.233061 -0.125573,0.361218 v 0.26355 H 32.173318 V 20.78173 c 0,-0.133325 0.01292,-0.233578 0.03876,-0.300757 0.02687,-0.06718 0.06563,-0.133325 0.116272,-0.198437 l 0.09302,-0.117823 c 0.04547,-0.05788 0.07441,-0.110073 0.08682,-0.156579 0.01343,-0.04651 0.02015,-0.106451 0.02015,-0.179834 v -0.221692 h -0.910022 v -0.875916 h 0.294555 z"
       id="text5"
       style="font-size:3.175px;stroke-width:0.264583"
       aria-label=":'טל"
       sodipodi:nodetypes="cccccccccccccccccccscscssssccssssccscsscccscccsccsccccsccccc" />
    <path
       d="m 9.0401293,20.021256 q 0,0.621667 -0.1953369,0.913122 -0.1937866,0.289905 -0.6030639,0.289905 -0.4154785,0 -0.6077149,-0.294556 -0.190686,-0.294555 -0.190686,-0.905371 0,-0.615466 0.1937866,-0.908472 0.1937867,-0.294555 0.6046143,-0.294555 0.4154785,0 0.6061645,0.299206 0.1922363,0.297657 0.1922363,0.900721 z m -0.407727,0.703833 q 0.05426,-0.125574 0.072864,-0.294556 0.020154,-0.170532 0.020154,-0.409277 0,-0.235645 -0.020154,-0.409278 -0.018603,-0.173633 -0.074414,-0.294555 -0.05426,-0.119373 -0.1488281,-0.179834 -0.093018,-0.06046 -0.2402954,-0.06046 -0.1457276,0 -0.2418457,0.06046 -0.094568,0.06046 -0.1503784,0.182934 -0.05271,0.114722 -0.072864,0.299207 -0.018604,0.184484 -0.018604,0.404626 0,0.241846 0.017053,0.404627 0.017053,0.16278 0.072864,0.291455 0.05116,0.120922 0.1441772,0.184484 0.094568,0.06356 0.2495972,0.06356 0.1457275,0 0.2418457,-0.06046 0.096118,-0.06046 0.1488281,-0.182934 z m 2.4107057,-0.282154 q 0,0.161231 -0.05891,0.308508 -0.05891,0.147278 -0.161231,0.248047 -0.111621,0.108521 -0.26665,0.167432 -0.153479,0.05736 -0.356567,0.05736 -0.189136,0 -0.3643193,-0.04031 -0.1751831,-0.03876 -0.2961059,-0.09457 v -0.327111 h 0.021704 q 0.127124,0.08062 0.2976562,0.137976 0.1705319,0.05581 0.3348629,0.05581 0.110071,0 0.212391,-0.03101 0.103869,-0.03101 0.184484,-0.10852 0.06821,-0.06666 0.10232,-0.15968 0.03566,-0.09302 0.03566,-0.215491 0,-0.119373 -0.04186,-0.201538 -0.04031,-0.08217 -0.113172,-0.131775 -0.08061,-0.05891 -0.196887,-0.08217 -0.114722,-0.0248 -0.257349,-0.0248 -0.1364255,0 -0.2635495,0.0186 -0.1255737,0.0186 -0.217041,0.03721 v -1.189074 h 1.3890625 v 0.271301 H 9.937749 v 0.613916 q 0.066663,-0.0062 0.136426,-0.0093 0.06976,-0.0031 0.120923,-0.0031 0.187585,0 0.328662,0.03256 0.141076,0.03101 0.258899,0.111621 0.124023,0.08527 0.192236,0.220141 0.06821,0.134876 0.06821,0.337964 z m 2.089795,0.08372 h -0.342615 v 0.649573 h -0.297656 v -0.649573 h -1.105359 v -0.356567 l 1.117761,-1.302246 h 0.285254 v 1.410766 h 0.342615 z m -0.640271,-0.248047 v -1.041797 l -0.894519,1.041797 z m 1.998328,0.0279 h -0.967383 v -0.280603 h 0.967383 z m 2.055688,-1.092956 -1.044897,1.962671 h -0.331763 l 1.11156,-2.037085 H 14.9669 v -0.271301 h 1.579748 z m 2.01228,1.962671 h -1.562695 v -0.324011 q 0.162781,-0.139527 0.325562,-0.279053 0.164331,-0.139527 0.305407,-0.277503 0.297657,-0.288354 0.407727,-0.457336 0.110071,-0.170532 0.110071,-0.367419 0,-0.179834 -0.119372,-0.280604 -0.117823,-0.102319 -0.330213,-0.102319 -0.141076,0 -0.305408,0.04961 -0.164331,0.04961 -0.32091,0.151928 h -0.0155 v -0.325561 q 0.110071,-0.05426 0.293005,-0.09922 0.184485,-0.04496 0.356568,-0.04496 0.355017,0 0.556555,0.172083 0.201538,0.170532 0.201538,0.463538 0,0.131774 -0.03411,0.246496 -0.03256,0.113172 -0.09767,0.215491 -0.06046,0.09612 -0.142627,0.189136 -0.08062,0.09302 -0.196887,0.206189 -0.165881,0.16278 -0.342615,0.316259 -0.176733,0.151929 -0.330212,0.282154 h 1.241784 z m 1.999878,-0.733289 q 0,0.161231 -0.05891,0.308508 -0.05891,0.147278 -0.16123,0.248047 -0.111622,0.108521 -0.266651,0.167432 -0.153479,0.05736 -0.356567,0.05736 -0.189136,0 -0.364319,-0.04031 -0.175183,-0.03876 -0.296106,-0.09457 v -0.327111 h 0.0217 q 0.127124,0.08062 0.297656,0.137976 0.170533,0.05581 0.334864,0.05581 0.11007,0 0.21239,-0.03101 0.103869,-0.03101 0.184485,-0.10852 0.06821,-0.06666 0.102319,-0.15968 0.03566,-0.09302 0.03566,-0.215491 0,-0.119373 -0.04186,-0.201538 -0.04031,-0.08217 -0.113172,-0.131775 -0.08062,-0.05891 -0.196887,-0.08217 -0.114722,-0.0248 -0.257348,-0.0248 -0.136426,0 -0.26355,0.0186 -0.125574,0.0186 -0.217041,0.03721 v -1.189074 h 1.389062 v 0.271301 h -1.089856 v 0.613916 q 0.06666,-0.0062 0.136426,-0.0093 0.06976,-0.0031 0.120923,-0.0031 0.187585,0 0.328662,0.03256 0.141077,0.03101 0.258899,0.111621 0.124023,0.08527 0.192236,0.220141 0.06821,0.134876 0.06821,0.337964 z m 2.033985,-0.421679 q 0,0.621667 -0.195337,0.913122 -0.193786,0.289905 -0.603064,0.289905 -0.415478,0 -0.607714,-0.294556 -0.190686,-0.294555 -0.190686,-0.905371 0,-0.615466 0.193786,-0.908472 0.193787,-0.294555 0.604614,-0.294555 0.415479,0 0.606165,0.299206 0.192236,0.297657 0.192236,0.900721 z m -0.407727,0.703833 q 0.05426,-0.125574 0.07286,-0.294556 0.02015,-0.170532 0.02015,-0.409277 0,-0.235645 -0.02015,-0.409278 -0.0186,-0.173633 -0.07441,-0.294555 -0.05426,-0.119373 -0.148828,-0.179834 -0.09302,-0.06046 -0.240296,-0.06046 -0.145727,0 -0.241845,0.06046 -0.09457,0.06046 -0.150379,0.182934 -0.05271,0.114722 -0.07286,0.299207 -0.0186,0.184484 -0.0186,0.404626 0,0.241846 0.01705,0.404627 0.01705,0.16278 0.07286,0.291455 0.05116,0.120922 0.144177,0.184484 0.09457,0.06356 0.249597,0.06356 0.145728,0 0.241846,-0.06046 0.09612,-0.06046 0.148828,-0.182934 z m 2.446362,-0.192237 q 0,0.299207 -0.234094,0.497644 -0.232544,0.198438 -0.586011,0.198438 -0.375171,0 -0.598413,-0.193787 -0.221692,-0.193787 -0.221692,-0.496094 0,-0.192236 0.111621,-0.347265 0.111622,-0.15658 0.31471,-0.248047 v -0.0093 q -0.186035,-0.09922 -0.275952,-0.217041 -0.08837,-0.117822 -0.08837,-0.294556 0,-0.260449 0.213941,-0.434082 0.21394,-0.173632 0.544152,-0.173632 0.345716,0 0.551905,0.165881 0.206189,0.165881 0.206189,0.42168 0,0.156579 -0.09767,0.308508 -0.09767,0.150378 -0.286804,0.235644 v 0.0093 q 0.217041,0.09302 0.331763,0.229444 0.114721,0.136425 0.114721,0.347265 z m -0.367419,-1.127063 q 0,-0.165881 -0.128674,-0.26355 -0.127124,-0.09922 -0.325562,-0.09922 -0.195337,0 -0.320911,0.09302 -0.124023,0.09302 -0.124023,0.251148 0,0.111621 0.06201,0.193786 0.06356,0.08062 0.190686,0.144178 0.05736,0.02791 0.164331,0.07286 0.10852,0.04496 0.21084,0.07441 0.153479,-0.102319 0.21239,-0.21239 0.05891,-0.110071 0.05891,-0.254248 z m 0.04806,1.156519 q 0,-0.142627 -0.06356,-0.227893 -0.06201,-0.08682 -0.244946,-0.173633 -0.07286,-0.03411 -0.159681,-0.06356 -0.08682,-0.02946 -0.230993,-0.08217 -0.139527,0.07597 -0.224793,0.206189 -0.08371,0.130225 -0.08371,0.294556 0,0.20929 0.144177,0.345715 0.144177,0.136426 0.365869,0.136426 0.226343,0 0.361218,-0.116272 0.136426,-0.116272 0.136426,-0.31936 z m 2.354895,-0.134876 q 0,0.351917 -0.232544,0.575159 -0.230994,0.221692 -0.567407,0.221692 -0.170533,0 -0.310059,-0.05271 -0.139526,-0.05271 -0.246497,-0.15658 -0.133325,-0.128674 -0.206189,-0.341064 -0.07131,-0.21239 -0.07131,-0.511597 0,-0.306958 0.06511,-0.544153 0.06666,-0.237194 0.21084,-0.421679 0.136426,-0.175183 0.351917,-0.272852 0.21549,-0.09922 0.502295,-0.09922 0.09147,0 0.153479,0.0078 0.06201,0.0078 0.125573,0.02791 v 0.296106 h -0.0155 q -0.04341,-0.02325 -0.131775,-0.04341 -0.08682,-0.0217 -0.178283,-0.0217 -0.333313,0 -0.531751,0.209289 -0.198437,0.20774 -0.230993,0.562757 0.130224,-0.07906 0.255798,-0.119373 0.127124,-0.04186 0.293005,-0.04186 0.147278,0 0.258899,0.02791 0.113172,0.02635 0.230994,0.108521 0.136426,0.09457 0.204639,0.238745 0.06976,0.144177 0.06976,0.350366 z m -0.31471,0.0124 q 0,-0.144178 -0.04341,-0.238746 -0.04186,-0.09457 -0.139526,-0.164331 -0.07131,-0.04961 -0.15813,-0.06511 -0.08682,-0.0155 -0.181384,-0.0155 -0.131775,0 -0.244947,0.03101 -0.113171,0.03101 -0.232544,0.09612 -0.0031,0.03411 -0.0047,0.06666 -0.0015,0.03101 -0.0015,0.07906 0,0.244946 0.04961,0.387573 0.05116,0.141077 0.139526,0.223242 0.07131,0.06821 0.153479,0.100769 0.08372,0.03101 0.181384,0.03101 0.224793,0 0.353467,-0.136426 0.128674,-0.137976 0.128674,-0.395324 z m 2.295985,-0.418579 q 0,0.621667 -0.195337,0.913122 -0.193787,0.289905 -0.603064,0.289905 -0.415478,0 -0.607715,-0.294556 -0.190686,-0.294555 -0.190686,-0.905371 0,-0.615466 0.193787,-0.908472 0.193786,-0.294555 0.604614,-0.294555 0.415479,0 0.606165,0.299206 0.192236,0.297657 0.192236,0.900721 z m -0.407727,0.703833 q 0.05426,-0.125574 0.07286,-0.294556 0.02015,-0.170532 0.02015,-0.409277 0,-0.235645 -0.02015,-0.409278 -0.0186,-0.173633 -0.07441,-0.294555 -0.05426,-0.119373 -0.148828,-0.179834 -0.09302,-0.06046 -0.240296,-0.06046 -0.145727,0 -0.241846,0.06046 -0.09457,0.06046 -0.150378,0.182934 -0.05271,0.114722 -0.07286,0.299207 -0.0186,0.184484 -0.0186,0.404626 0,0.241846 0.01705,0.404627 0.01705,0.16278 0.07286,0.291455 0.05116,0.120922 0.144177,0.184484 0.09457,0.06356 0.249597,0.06356 0.145728,0 0.241846,-0.06046 0.09612,-0.06046 0.148828,-0.182934 z"
       id="text6"
       style="font-size:3.175px;stroke-width:0.264583"
       aria-label="054-7250860" />
    <path
       style="fill:none;stroke-width:0.265;stroke:#000000;stroke-opacity:1;stroke-dasharray:none"
       d="M 113.97088,22.685504 7.199591,22.821345"
       id="path6" />
    <path
       style="font-size:3.40123px;fill:none;stroke:#000000;stroke-width:0.283882"
       d="m 120.8504,27.935989 h -0.31721 v -0.954935 q 0,-0.194308 -0.0432,-0.305579 -0.0432,-0.111271 -0.17271,-0.177701 -0.12954,-0.06809 -0.37201,-0.06809 -0.14117,0 -0.31555,0.02325 v 1.483056 h -0.3172 v -1.723865 q 0.3554,-0.05813 0.65268,-0.05813 0.3255,0 0.52313,0.09632 0.19929,0.09466 0.28067,0.254096 0.0814,0.159433 0.0814,0.445083 z m -3.66861,-1.762063 0.007,0.285651 q 0.01,0.4401 0.0382,0.609497 0.17604,0 0.3172,-0.08802 0.14117,-0.08802 0.14117,-0.333812 l 0.0349,-0.473316 h 0.31887 l -0.0399,0.554693 q -0.01,0.141164 -0.0316,0.214238 -0.0216,0.07307 -0.0897,0.15445 -0.0664,0.08138 -0.21257,0.142825 -0.14449,0.05979 -0.39028,0.07972 0.0415,0.179361 0.19265,0.287311 0.15112,0.107949 0.37201,0.107949 0.20427,0 0.35042,-0.09632 0.14614,-0.09798 0.21589,-0.250774 0.0698,-0.154451 0.093,-0.43844 l 0.0714,-0.755645 h 0.31886 l -0.0598,0.652678 q -0.0349,0.367027 -0.12456,0.611158 -0.0897,0.244132 -0.31222,0.39526 -0.22088,0.151129 -0.5713,0.151129 -0.31056,0 -0.52148,-0.149468 -0.20926,-0.151129 -0.31388,-0.430136 -0.10297,-0.279007 -0.10297,-0.744019 l -0.0233,-0.486602 z m -0.84367,1.496342 h 0.28067 v 0.265721 h -1.68567 v -0.265721 h 1.0878 v -0.601194 q 0,-0.245792 -0.0548,-0.368688 -0.0548,-0.124557 -0.19929,-0.19763 -0.14282,-0.07307 -0.44674,-0.07307 -0.10795,0 -0.33382,0.02325 l -0.0266,-0.262399 q 0.2242,-0.03654 0.47664,-0.03654 0.47498,0 0.68755,0.205934 0.21424,0.205934 0.21424,0.624445 z m -1.74545,-1.496342 v 1.762063 h -0.32385 v -1.762063 z m -0.83038,1.762063 h -0.85031 v -0.265721 h 0.5331 v -0.863593 q 0,-0.142825 -0.0216,-0.215899 -0.0216,-0.07473 -0.093,-0.119574 -0.0697,-0.04484 -0.18766,-0.04484 -0.10131,0 -0.18103,0.01661 l -0.0232,-0.252435 q 0.11127,-0.03654 0.27237,-0.03654 0.22586,0 0.34544,0.0847 0.11957,0.0847 0.16275,0.209255 0.0432,0.122896 0.0432,0.348759 z m -1.20737,-1.762063 v 0.911756 h -0.32385 v -0.911756 z m -2.70039,1.720544 0.0548,-0.237488 q 0.0864,0.02989 0.18767,0.02989 0.11459,0 0.15777,-0.04982 0.0432,-0.05148 0.0432,-0.184344 v -1.016383 q -0.14283,0 -0.35042,0.02989 l -0.0282,-0.264061 q 0.37865,-0.04816 0.76893,-0.04816 0.39526,0 0.60783,0.06643 0.21258,0.06643 0.32385,0.244131 0.11293,0.17604 0.11293,0.519817 v 0.951613 h -0.3172 v -0.866915 q 0,-0.257417 -0.0399,-0.376992 -0.0382,-0.119574 -0.1694,-0.194308 -0.1312,-0.07473 -0.43346,-0.07473 l -0.15943,0.0033 v 1.067867 q 0,0.166076 -0.0315,0.254096 -0.0299,0.08802 -0.12788,0.144486 -0.0963,0.05646 -0.28897,0.05646 -0.15611,0 -0.31056,-0.05481 z m -2.65057,-0.984828 -0.27237,-0.735716 h 0.31057 l 0.12953,0.388617 q 0.0781,-0.171058 0.24414,-0.288971 0.16607,-0.119575 0.35706,-0.119575 0.20261,0 0.34876,0.104628 0.14781,0.102967 0.21424,0.302258 0.0664,0.199291 0.0664,0.599533 v 0.775573 h -0.90844 v -0.265721 h 0.58791 v -0.516495 q 0,-0.292293 -0.0199,-0.425154 -0.0183,-0.134521 -0.098,-0.217559 -0.0781,-0.0847 -0.19763,-0.0847 -0.18601,0 -0.31721,0.192648 -0.12954,0.190987 -0.22088,0.664303 l -0.12456,0.652677 h -0.32052 l 0.1395,-0.687553 q 0.0199,-0.09799 0.0814,-0.338794 z m -2.20881,0.152789 q 0,-0.421832 0.22587,-0.679249 0.22752,-0.257418 0.60119,-0.257418 0.22254,0 0.4019,0.09799 0.17936,0.09632 0.30226,0.308901 0.1229,0.212577 0.1229,0.529781 0,0.260739 -0.093,0.466673 -0.093,0.205934 -0.28066,0.332151 -0.18767,0.126218 -0.45339,0.126218 -0.37367,0 -0.60119,-0.252435 -0.22587,-0.254096 -0.22587,-0.672607 z m 0.3471,0 q 0,0.312223 0.12622,0.486602 0.12622,0.172719 0.35374,0.172719 0.24579,0 0.3637,-0.187666 0.11958,-0.187665 0.11958,-0.474976 0,-0.318866 -0.12788,-0.496567 -0.12788,-0.177701 -0.3554,-0.177701 -0.24081,0 -0.36039,0.192648 -0.11957,0.190987 -0.11957,0.484941 z m -2.38651,0.915077 0.70582,-2.517707 h 0.23915 l -0.70416,2.517707 z m -2.56587,-1.803582 h 1.43822 v 0.43844 q 0,0.187666 -0.0349,0.302258 -0.0332,0.112931 -0.12123,0.232506 l -0.088,0.119574 q -0.13618,0.182684 -0.13618,0.386957 v 0.282328 h -0.31721 v -0.237488 q 0,-0.181022 0.0315,-0.292293 0.0332,-0.112932 0.13619,-0.242471 l 0.098,-0.126217 q 0.0714,-0.09134 0.093,-0.164415 0.0233,-0.07473 0.0233,-0.195969 v -0.237489 h -1.12267 z m 0.0266,2.439652 v -1.670721 h 0.30391 v 1.670721 z m -0.631092,-0.94331 h 0.280672 v 0.265721 h -1.685673 v -0.265721 h 1.087796 v -0.601194 q 0,-0.245792 -0.05481,-0.368688 -0.05481,-0.124557 -0.199291,-0.19763 -0.142825,-0.07307 -0.446743,-0.07307 -0.10795,0 -0.333813,0.02325 l -0.02657,-0.262399 q 0.224203,-0.03654 0.476638,-0.03654 0.474976,0 0.687553,0.205934 0.214238,0.205934 0.214238,0.624445 z m -2.647247,-1.496342 h 0.976525 v 0.43844 q 0,0.186005 -0.03488,0.302258 -0.03488,0.114592 -0.121235,0.232506 l -0.08968,0.119574 q -0.134521,0.181023 -0.134521,0.386957 v 0.282328 h -0.317205 v -0.237488 q 0,-0.214237 0.04152,-0.322187 0.04318,-0.107949 0.124557,-0.212577 l 0.09964,-0.126217 q 0.07307,-0.093 0.093,-0.167737 0.02159,-0.07473 0.02159,-0.192647 V 26.439647 H 96.822567 V 25.50132 h 0.315544 z m -2.213789,0.03155 q 0.300597,-0.05148 0.584587,-0.05148 0.551371,0 0.762287,0.204273 0.210916,0.204273 0.210916,0.626106 v 0.951613 h -0.317204 v -0.866915 q 0,-0.26406 -0.06145,-0.386956 -0.06145,-0.124557 -0.212577,-0.187666 -0.149468,-0.06477 -0.436779,-0.06477 -0.225863,0 -0.50321,0.0465 z m 0.337134,0.737376 v 0.993132 h -0.317205 v -0.993132 z"
       id="text7"
       transform="scale(0.94632601,1.0567183)"
       aria-label="חשבונית מס / קבלה" />
    <g
       id="text8"
       style="white-space:pre;fill:none;stroke:#000000;stroke-width:1.00157"
       inkscape:transform-center-x="-2.7847475"
       inkscape:transform-center-y="-0.067920671"
       transform="scale(0.26458333)"
       aria-label="'מס">
      <path
         style="-inkscape-font-specification:sans-serif;fill:#000000;stroke:none"
         d="m 291.13281,104.48898 -0.26953,-1.60547 v -1.43555 h 1.20117 v 1.43555 l -0.28125,1.60547 z"
         id="path1" />
      <path
         style="-inkscape-font-specification:sans-serif;fill:#000000;stroke:none"
         d="m 300.94727,106.41671 -0.96094,-2.5957 h 1.0957 l 0.45703,1.37109 q 0.27539,-0.60351 0.86133,-1.01953 0.58594,-0.42187 1.25977,-0.42187 0.71484,0 1.23046,0.36914 0.52149,0.36328 0.75586,1.06641 0.23438,0.70312 0.23438,2.11523 v 2.73633 h -3.20508 v -0.9375 H 304.75 v -1.82227 q 0,-1.03125 -0.0703,-1.5 -0.0645,-0.47461 -0.34571,-0.76758 -0.27539,-0.29882 -0.69726,-0.29882 -0.65625,0 -1.11914,0.67968 -0.45703,0.67383 -0.7793,2.34375 l -0.43945,2.30274 h -1.13086 l 0.49219,-2.42578 q 0.0703,-0.34571 0.28711,-1.19532 z m -7.79297,0.53907 q 0,-1.48828 0.79687,-2.39649 0.80274,-0.9082 2.1211,-0.9082 0.78515,0 1.41796,0.3457 0.63282,0.33985 1.06641,1.08985 0.43359,0.75 0.43359,1.86914 0,0.91992 -0.32812,1.64648 -0.32813,0.72656 -0.99024,1.17188 -0.6621,0.44531 -1.5996,0.44531 -1.31836,0 -2.1211,-0.89063 -0.79687,-0.89648 -0.79687,-2.37304 z m 1.22461,0 q 0,1.10156 0.44531,1.71679 0.44531,0.60938 1.24805,0.60938 0.86718,0 1.2832,-0.66211 0.42187,-0.66211 0.42187,-1.67578 0,-1.125 -0.45117,-1.75196 -0.45117,-0.62695 -1.2539,-0.62695 -0.84961,0 -1.27149,0.67969 -0.42187,0.67383 -0.42187,1.71094 z"
         id="path2" />
    </g>
    <rect
       style="fill:#f8f8f8;fill-opacity:1;stroke:#f0f0f0;stroke-width:0.276744;stroke-dasharray:0.276744, 6.64186;stroke-dashoffset:0;stroke-opacity:1"
       id="rect9"
       width="14.861628"
       height="4.7232561"
       x="60.138371"
       y="26.138372" />
    <path
       d="m 106.85435,37.657864 v -0.31781 h 0.31781 v 0.31781 z m 0,1.328601 v -0.31781 h 0.31781 v 0.31781 z m 6.56394,-1.64486 h 0.91157 v 0.409277 q 0,0.173633 -0.0326,0.282153 -0.0326,0.106971 -0.11317,0.217041 l -0.0837,0.111621 q -0.12558,0.168982 -0.12558,0.361219 v 0.263549 h -0.2961 v -0.221691 q 0,-0.199988 0.0387,-0.300757 0.0403,-0.100769 0.11628,-0.198438 l 0.093,-0.117822 q 0.0682,-0.08682 0.0868,-0.15658 0.0202,-0.06976 0.0202,-0.179834 v -0.221691 h -0.91002 v -0.875916 h 0.29456 z m -1.72703,1.623156 0.0403,-0.26665 q 0.14573,0.04651 0.29921,0.04651 0.17518,0 0.29455,-0.07131 0.11937,-0.07286 0.18294,-0.204638 0.0651,-0.131775 0.0651,-0.303858 0,-0.258899 -0.14108,-0.421679 -0.13953,-0.162781 -0.40152,-0.162781 -0.15503,0 -0.29921,0.04651 l -0.0403,-0.266651 q 0.18139,-0.04651 0.32401,-0.04651 0.41238,0 0.64337,0.240296 0.23255,0.240295 0.23255,0.610815 0,0.241846 -0.10077,0.427881 -0.0992,0.186035 -0.28991,0.302307 -0.19068,0.116272 -0.48524,0.116272 -0.14417,0 -0.32401,-0.04651 z m -0.45578,-0.226342 h 0.26199 v 0.248046 h -1.57354 v -0.248046 h 1.01544 v -0.561206 q 0,-0.229444 -0.0512,-0.344165 -0.0512,-0.116272 -0.18604,-0.184485 -0.13332,-0.06821 -0.41702,-0.06821 -0.10077,0 -0.31161,0.0217 l -0.0248,-0.244946 q 0.20929,-0.03411 0.44494,-0.03411 0.44338,0 0.64182,0.192236 0.19999,0.192237 0.19999,0.582911 z m -1.62936,-1.396814 v 1.64486 h -0.30231 v -1.64486 z m -0.61237,0.248047 h -0.2806 v 1.396813 h -0.29456 v -1.396813 h -0.89917 v -0.248047 h 1.47433 z"
       id="text9"
       style="font-size:3.175px;-inkscape-font-specification:sans-serif;stroke-width:0.165"
       aria-label=":לכבוד" />
    <rect
       style="fill:#f8f8f8;fill-opacity:1;stroke:#e0e0e0;stroke-width:0.185579;stroke-dasharray:0.185579, 4.45391;stroke-dashoffset:0;stroke-opacity:1"
       id="rect10"
       width="59.814419"
       height="3.3144205"
       x="45.092789"
       y="36.092789" />
    <path
       style="fill:none;fill-opacity:1;stroke:#000000;stroke-width:0.191;stroke-dasharray:none;stroke-dashoffset:0;stroke-opacity:1"
       d="M 10,50 H 114 V 90 H 10 Z"
       id="path10"
       sodipodi:nodetypes="ccccc" />
    <path
       style="fill:none;fill-opacity:1;stroke:#000000;stroke-width:0.191;stroke-dasharray:none;stroke-dashoffset:0;stroke-opacity:1"
       d="m 10,90 v 15 H 25 V 50"
       id="path11"
       sodipodi:nodetypes="cccc" />
    <path
       style="fill:none;fill-opacity:1;stroke:#000000;stroke-width:0.191;stroke-dasharray:none;stroke-dashoffset:0;stroke-opacity:1"
       d="M 10,55 H 114"
       id="path12"
       sodipodi:nodetypes="cc" />
    <path
       style="fill:none;fill-opacity:1;stroke:#000000;stroke-width:0.191;stroke-dasharray:none;stroke-dashoffset:0;stroke-opacity:1"
       d="M 10,60 H 114"
       id="path13"
       sodipodi:nodetypes="cc" />
    <path
       style="fill:none;fill-opacity:1;stroke:#000000;stroke-width:0.191;stroke-dasharray:none;stroke-dashoffset:0;stroke-opacity:1"
       d="M 10,65 H 114"
       id="path14"
       sodipodi:nodetypes="cc" />
    <path
       style="fill:none;fill-opacity:1;stroke:#000000;stroke-width:0.191;stroke-dasharray:none;stroke-dashoffset:0;stroke-opacity:1"
       d="M 10,70 H 114"
       id="path15"
       sodipodi:nodetypes="cc" />
    <path
       style="fill:none;fill-opacity:1;stroke:#000000;stroke-width:0.191;stroke-dasharray:none;stroke-dashoffset:0;stroke-opacity:1"
       d="M 10,75 H 114"
       id="path16"
       sodipodi:nodetypes="cc" />
    <path
       style="fill:none;fill-opacity:1;stroke:#000000;stroke-width:0.191;stroke-dasharray:none;stroke-dashoffset:0;stroke-opacity:1"
       d="M 10,80 H 114"
       id="path17"
       sodipodi:nodetypes="cc" />
    <path
       style="fill:none;fill-opacity:1;stroke:#000000;stroke-width:0.191;stroke-dasharray:none;stroke-dashoffset:0;stroke-opacity:1"
       d="M 10,85 H 114"
       id="path18"
       sodipodi:nodetypes="cc" />
    <path
       style="fill:none;fill-opacity:1;stroke:#000000;stroke-width:0.191;stroke-dasharray:none;stroke-dashoffset:0;stroke-opacity:1"
       d="M 10,95 H 25"
       id="path22"
       sodipodi:nodetypes="cc" />
    <path
       style="fill:none;fill-opacity:1;stroke:#000000;stroke-width:0.191;stroke-dasharray:none;stroke-dashoffset:0;stroke-opacity:1"
       d="M 10,100 H 25"
       id="path23"
       sodipodi:nodetypes="cc" />
    <path
       d="m 63.008811,60.765206 q 0.463788,-0.142086 0.970469,-0.142086 0.624639,0 1.042852,0.367277 0.418214,0.367278 0.418214,1.0643 0,0.688979 -0.428937,1.096469 -0.428937,0.40749 -1.195661,0.40749 -0.522767,0 -0.825703,-0.190341 l 0.123319,-0.423575 q 0.262724,0.168894 0.667533,0.168894 0.458426,0 0.788171,-0.260043 0.332426,-0.262723 0.332426,-0.788171 0,-0.461107 -0.260043,-0.739916 -0.260043,-0.281489 -0.694341,-0.281489 -0.225192,0 -0.445022,0.05094 v 0.520086 q 0,0.329745 0.329745,0.329745 0.134043,0 0.225192,-0.03217 l 0.05362,0.372639 q -0.15549,0.06702 -0.361915,0.06702 -0.348512,0 -0.544214,-0.18766 -0.195702,-0.190341 -0.195702,-0.560299 z m -3.015961,-0.06702 q 0.412851,-0.05898 0.758681,-0.05898 0.863235,0 1.201023,0.335106 0.340469,0.332426 0.340469,1.005321 v 1.536129 H 61.78366 v -1.399406 q 0,-0.388724 -0.08311,-0.587107 -0.08311,-0.198383 -0.319022,-0.321702 -0.235915,-0.12332 -0.65949,-0.12332 -0.286851,0 -0.686299,0.05362 z m -2.970387,-0.02681 h 0.512043 v 1.477151 q 0,0.63 0.230554,0.831064 0.233234,0.201065 0.520085,0.201065 0.305618,0 0.482554,-0.142086 0.179617,-0.142085 0.233235,-0.369958 0.05362,-0.227872 0.05362,-0.613915 v -0.361916 q 0,-0.624639 -0.361916,-0.624639 -0.254681,0 -0.466468,0.284171 l -0.160852,-0.262724 q 0.289533,-0.477192 0.737235,-0.477192 0.37532,0 0.568341,0.294894 0.193022,0.294894 0.193022,0.863235 v 0.203745 q 0,0.552256 -0.107234,0.863235 -0.104554,0.310979 -0.404809,0.53349 -0.297575,0.222511 -0.766725,0.222511 -0.412851,0 -0.718469,-0.203745 -0.302936,-0.203745 -0.423575,-0.514724 -0.120638,-0.310979 -0.120638,-0.868597 z m -0.790853,0 v 1.471789 h -0.522766 v -1.471789 z m -1.327022,2.844386 h -2.482471 v -2.782727 q 0.573702,-0.09383 1.053575,-0.09383 0.525448,0 0.844469,0.155489 0.321703,0.152809 0.453065,0.410171 0.131362,0.257362 0.131362,0.718469 z m -0.512043,-0.428936 v -1.112555 q 0,-0.31366 -0.0697,-0.493277 -0.0697,-0.179617 -0.278809,-0.286852 -0.209106,-0.109915 -0.600511,-0.109915 -0.227873,0 -0.509362,0.03753 v 1.965067 z"
       id="text23"
       style="font-size:5.49039px;-inkscape-font-specification:sans-serif;stroke-width:0.330289"
       transform="scale(1.178754,0.84835343)"
       aria-label="פרטים" />
    <path
       d="m 20.651709,46.664844 q 0,-0.483244 0.258745,-0.778137 0.260647,-0.294892 0.688717,-0.294892 0.25494,0 0.460414,0.112249 0.205473,0.110347 0.346261,0.353872 0.140787,0.243524 0.140787,0.606908 0,0.298698 -0.106542,0.534612 -0.106542,0.235914 -0.321528,0.380507 -0.214986,0.144592 -0.519392,0.144592 -0.42807,0 -0.688717,-0.289185 -0.258745,-0.291087 -0.258745,-0.770526 z m 0.39763,0 q 0,0.357676 0.144592,0.557442 0.144593,0.197864 0.40524,0.197864 0.281575,0 0.416655,-0.214986 0.136983,-0.214987 0.136983,-0.544125 0,-0.365287 -0.146495,-0.568858 -0.146496,-0.203571 -0.407143,-0.203571 -0.275867,0 -0.41285,0.220694 -0.136982,0.218791 -0.136982,0.55554 z m -2.212648,0.974097 0.04947,-0.327235 q 0.178838,0.05708 0.367189,0.05708 0.214987,0 0.361482,-0.08752 0.146495,-0.08942 0.224499,-0.251134 0.07991,-0.161716 0.07991,-0.372897 0,-0.317723 -0.17313,-0.517489 -0.171228,-0.199767 -0.492757,-0.199767 -0.190253,0 -0.367189,0.05708 l -0.04947,-0.327235 q 0.222597,-0.05708 0.39763,-0.05708 0.506074,0 0.789552,0.294892 0.28538,0.294893 0.28538,0.749599 0,0.296795 -0.123665,0.525099 -0.121762,0.228304 -0.355774,0.370994 -0.234012,0.14269 -0.595493,0.14269 -0.176936,0 -0.39763,-0.05708 z m -0.447095,-1.991953 v 2.018589 h -0.370994 v -2.018589 z m -0.941755,2.018589 h -1.761746 v -1.974831 q 0.407142,-0.06659 0.747696,-0.06659 0.372896,0 0.599298,0.110347 0.228304,0.108444 0.321528,0.291087 0.09322,0.182644 0.09322,0.50988 z M 17.084457,47.361171 V 46.57162 q 0,-0.222597 -0.04947,-0.350066 -0.04947,-0.12747 -0.197864,-0.203572 -0.148398,-0.078 -0.426168,-0.078 -0.161715,0 -0.361481,0.02664 v 1.394557 z"
       id="text24"
       style="font-size:3.89639px;-inkscape-font-specification:sans-serif;stroke-width:0.234397"
       transform="scale(0.88486075,1.1301213)"
       aria-label="סכום" />
    <path
       d="m 45.047335,103.21139 q 0,-0.39378 0.21084,-0.63407 0.21239,-0.2403 0.561206,-0.2403 0.207739,0 0.37517,0.0915 0.167432,0.0899 0.282154,0.28835 0.114721,0.19844 0.114721,0.49455 0,0.24339 -0.08682,0.43563 -0.08682,0.19223 -0.261999,0.31006 -0.175184,0.11782 -0.42323,0.11782 -0.348816,0 -0.561206,-0.23565 -0.21084,-0.23719 -0.21084,-0.62786 z m 0.324011,0 q 0,0.29145 0.117822,0.45423 0.117822,0.16123 0.330213,0.16123 0.229443,0 0.339514,-0.17518 0.111621,-0.17518 0.111621,-0.44338 0,-0.29766 -0.119373,-0.46354 -0.119372,-0.16588 -0.331762,-0.16588 -0.224793,0 -0.336414,0.17983 -0.111621,0.17828 -0.111621,0.45269 z m -1.802989,0.79375 0.04031,-0.26665 q 0.145728,0.0465 0.299207,0.0465 0.175183,0 0.294555,-0.0713 0.119373,-0.0729 0.182935,-0.20464 0.06511,-0.13177 0.06511,-0.30386 0,-0.25889 -0.141077,-0.42167 -0.139526,-0.16279 -0.401525,-0.16279 -0.15503,0 -0.299207,0.0465 l -0.04031,-0.26665 q 0.181385,-0.0465 0.324012,-0.0465 0.412378,0 0.643371,0.2403 0.232544,0.24029 0.232544,0.61081 0,0.24185 -0.100769,0.42789 -0.09922,0.18603 -0.289905,0.3023 -0.190686,0.11627 -0.485241,0.11627 -0.144178,0 -0.324012,-0.0465 z m -1.027845,-1.44643 -0.07751,-0.43253 v -0.37207 h 0.31781 v 0.37207 l -0.06976,0.43253 z m 0.513146,0 -0.07596,-0.43253 v -0.37207 h 0.31781 v 0.37207 l -0.07441,0.43253 z m -2.07584,1.44643 0.04031,-0.26665 q 0.145728,0.0465 0.299207,0.0465 0.175183,0 0.294555,-0.0713 0.119373,-0.0729 0.182935,-0.20464 0.06511,-0.13177 0.06511,-0.30386 0,-0.25889 -0.141076,-0.42167 -0.139527,-0.16279 -0.401526,-0.16279 -0.15503,0 -0.299207,0.0465 l -0.04031,-0.26665 q 0.181384,-0.0465 0.324011,-0.0465 0.412378,0 0.643371,0.2403 0.232544,0.24029 0.232544,0.61081 0,0.24185 -0.100769,0.42789 -0.09922,0.18603 -0.289905,0.3023 -0.190686,0.11627 -0.485241,0.11627 -0.144177,0 -0.324011,-0.0465 z m -2.345594,0 0.04031,-0.26665 q 0.145727,0.0465 0.299206,0.0465 0.175183,0 0.294556,-0.0713 0.119372,-0.0729 0.182934,-0.20464 0.06511,-0.13177 0.06511,-0.30386 0,-0.25889 -0.141077,-0.42167 -0.139526,-0.16279 -0.401526,-0.16279 -0.155029,0 -0.299206,0.0465 l -0.04031,-0.26665 q 0.181384,-0.0465 0.324011,-0.0465 0.412378,0 0.643372,0.2403 0.232544,0.24029 0.232544,0.61081 0,0.24185 -0.100769,0.42789 -0.09922,0.18603 -0.289905,0.3023 -0.190686,0.11627 -0.485242,0.11627 -0.144177,0 -0.324011,-0.0465 z m -0.364319,-1.62316 v 1.64486 h -0.302307 v -1.64486 z m -1.624707,0 h 0.911572 v 0.40928 q 0,0.17363 -0.03256,0.28215 -0.03256,0.10697 -0.113171,0.21704 l -0.08372,0.11162 q -0.125574,0.16898 -0.125574,0.36122 v 0.26355 h -0.296106 v -0.22169 q 0,-0.19999 0.03876,-0.30076 0.04031,-0.10077 0.116272,-0.19844 l 0.09302,-0.11782 q 0.06821,-0.0868 0.08682,-0.15658 0.02015,-0.0698 0.02015,-0.17983 v -0.22169 h -0.910022 v -0.87592 h 0.294556 z m -1.469678,0 h 0.911572 v 0.40928 q 0,0.17363 -0.03256,0.28215 -0.03256,0.10697 -0.113171,0.21704 l -0.08372,0.11162 q -0.125574,0.16898 -0.125574,0.36122 v 0.26355 h -0.296106 v -0.22169 q 0,-0.19999 0.03876,-0.30076 0.04031,-0.10077 0.116272,-0.19844 l 0.09302,-0.11782 q 0.06821,-0.0868 0.08682,-0.15658 0.02015,-0.0698 0.02015,-0.17983 v -0.22169 h -0.910022 v -0.87592 h 0.294556 z m -2.799829,0.68678 -0.254248,-0.68678 h 0.289905 l 0.120923,0.36277 q 0.07286,-0.15968 0.227893,-0.26975 0.155029,-0.11162 0.333313,-0.11162 0.189136,0 0.325562,0.0977 0.137976,0.0961 0.199987,0.28216 0.06201,0.18603 0.06201,0.55965 v 0.72399 h -0.84801 v -0.24805 h 0.548804 v -0.48214 q 0,-0.27285 -0.0186,-0.39687 -0.01705,-0.12558 -0.09147,-0.20309 -0.07286,-0.0791 -0.184485,-0.0791 -0.173633,0 -0.296106,0.17984 -0.120923,0.17828 -0.206189,0.62012 l -0.116272,0.60926 h -0.299207 l 0.130225,-0.64182 q 0.0186,-0.0915 0.07596,-0.31626 z m -1.568896,0.75809 -0.285254,-1.44487 h 0.311609 l 0.243396,1.35341 q 0.263549,-0.10387 0.330212,-0.29766 0.06666,-0.19534 0.06666,-0.48989 l 0.0155,-0.56586 h 0.299206 l -0.0155,0.43563 q -0.0124,0.31471 -0.02791,0.44184 -0.01395,0.12712 -0.08062,0.2806 -0.06511,0.15193 -0.192237,0.2651 -0.127124,0.11162 -0.37362,0.20464 -0.244947,0.093 -0.700733,0.16898 l -0.04186,-0.25735 q 0.277503,-0.0403 0.451136,-0.0946 z m -1.393714,-1.26814 -0.07751,-0.43253 v -0.37207 h 0.31781 v 0.37207 l -0.06976,0.43253 z m 0.513147,0 -0.07596,-0.43253 v -0.37207 h 0.31781 v 0.37207 l -0.07441,0.43253 z m -2.266528,0.51005 -0.254248,-0.68678 h 0.289905 l 0.120923,0.36277 q 0.07286,-0.15968 0.227893,-0.26975 0.155029,-0.11162 0.333313,-0.11162 0.189135,0 0.325561,0.0977 0.137976,0.0961 0.199988,0.28216 0.06201,0.18603 0.06201,0.55965 v 0.72399 h -0.848011 v -0.24805 h 0.548804 v -0.48214 q 0,-0.27285 -0.0186,-0.39687 -0.01705,-0.12558 -0.09147,-0.20309 -0.07286,-0.0791 -0.184485,-0.0791 -0.173632,0 -0.296105,0.17984 -0.120923,0.17828 -0.206189,0.62012 l -0.116272,0.60926 h -0.299207 l 0.130225,-0.64182 q 0.0186,-0.0915 0.07596,-0.31626 z"
       id="text25"
       style="font-size:3.175px;-inkscape-font-specification:sans-serif;stroke-width:0.191"
       aria-label="סכ&quot;כ כולל מע&quot;מ" />
    <path
       d="m 32.181583,97.881824 -0.254248,-0.68678 h 0.289905 l 0.120922,0.362769 q 0.07286,-0.159681 0.227893,-0.269751 0.15503,-0.111622 0.333313,-0.111622 0.189136,0 0.325562,0.09767 0.137976,0.09612 0.199988,0.282153 0.06201,0.186035 0.06201,0.559656 v 0.723987 h -0.84801 v -0.248047 h 0.548804 v -0.482141 q 0,-0.272852 -0.0186,-0.396875 -0.01705,-0.125574 -0.09147,-0.203089 -0.07286,-0.07906 -0.184485,-0.07906 -0.173633,0 -0.296106,0.179834 -0.120923,0.178284 -0.206189,0.620118 L 32.2746,98.839905 h -0.299206 l 0.130224,-0.641821 q 0.0186,-0.09147 0.07597,-0.31626 z m -1.568897,0.758093 -0.285253,-1.444873 h 0.311608 l 0.243396,1.353406 q 0.26355,-0.10387 0.330213,-0.297657 0.06666,-0.195336 0.06666,-0.489892 l 0.0155,-0.565857 h 0.299207 l -0.0155,0.435632 q -0.0124,0.31471 -0.02791,0.441834 -0.01395,0.127124 -0.08062,0.280603 -0.06511,0.151929 -0.192236,0.2651 -0.127124,0.111621 -0.37362,0.204639 -0.244947,0.09302 -0.700733,0.168981 l -0.04186,-0.257348 q 0.277503,-0.04031 0.451135,-0.09457 z m -1.393713,-1.26814 -0.07751,-0.432531 v -0.372071 h 0.31781 v 0.372071 l -0.06976,0.432531 z m 0.513147,0 -0.07596,-0.432531 v -0.372071 h 0.31781 v 0.372071 l -0.07441,0.432531 z m -2.266528,0.510047 -0.254248,-0.68678 h 0.289905 l 0.120922,0.362769 q 0.07286,-0.159681 0.227894,-0.269751 0.155029,-0.111622 0.333312,-0.111622 0.189136,0 0.325562,0.09767 0.137976,0.09612 0.199988,0.282153 0.06201,0.186035 0.06201,0.559656 v 0.723987 h -0.848011 v -0.248047 h 0.548804 v -0.482141 q 0,-0.272852 -0.0186,-0.396875 -0.01705,-0.125574 -0.09147,-0.203089 -0.07286,-0.07906 -0.184485,-0.07906 -0.173632,0 -0.296106,0.179834 -0.120922,0.178284 -0.206189,0.620118 l -0.116272,0.609265 h -0.299206 l 0.130225,-0.641821 q 0.0186,-0.09147 0.07596,-0.31626 z"
       id="text26"
       style="font-size:3.175px;-inkscape-font-specification:sans-serif;stroke-width:0.191"
       aria-label="מע&quot;מ" />
    <path
       d="m 33.603141,93.710266 0.05116,-0.221692 q 0.08062,0.02791 0.175183,0.02791 0.10697,0 0.147278,-0.04651 0.04031,-0.04806 0.04031,-0.172083 v -0.948779 q -0.133326,0 -0.327112,0.02791 l -0.02635,-0.246496 q 0.353467,-0.04496 0.717785,-0.04496 0.36897,0 0.567408,0.06201 0.198437,0.06201 0.302307,0.227893 0.10542,0.164331 0.10542,0.485242 v 0.888317 h -0.296106 v -0.809252 q 0,-0.240296 -0.03721,-0.351917 -0.03566,-0.111621 -0.15813,-0.181384 -0.122473,-0.06976 -0.404627,-0.06976 l -0.148828,0.0031 v 0.996839 q 0,0.155029 -0.02945,0.237194 -0.02791,0.08217 -0.119373,0.134876 -0.08992,0.05271 -0.269751,0.05271 -0.145727,0 -0.289905,-0.05116 z m -1.810742,-1.606103 0.0062,0.26665 q 0.0093,0.410828 0.03566,0.568958 0.164331,0 0.296106,-0.08217 0.131775,-0.08217 0.131775,-0.311609 l 0.03256,-0.441833 h 0.297656 l -0.03721,0.517797 q -0.0093,0.131775 -0.02945,0.199988 -0.02015,0.06821 -0.08372,0.144178 -0.06201,0.07596 -0.198437,0.133325 -0.134876,0.05581 -0.364319,0.07441 0.03876,0.167431 0.179834,0.2682 0.141076,0.100769 0.347265,0.100769 0.190686,0 0.327112,-0.08992 0.136426,-0.09147 0.201538,-0.234094 0.06511,-0.144177 0.08682,-0.409277 l 0.06666,-0.705383 H 33.3861 l -0.05581,0.609265 q -0.03256,0.342614 -0.116272,0.570508 -0.08372,0.227893 -0.291455,0.368969 -0.206189,0.141077 -0.533301,0.141077 -0.289905,0 -0.486792,-0.139526 -0.195337,-0.141077 -0.293005,-0.401526 -0.09612,-0.26045 -0.09612,-0.694532 l -0.02171,-0.454235 z m -1.53789,0 h 0.911572 v 0.409277 q 0,0.173633 -0.03256,0.282153 -0.03256,0.10697 -0.113172,0.217041 l -0.08372,0.111621 q -0.125574,0.168982 -0.125574,0.361219 v 0.263549 h -0.296106 v -0.221691 q 0,-0.199988 0.03876,-0.300757 0.04031,-0.100769 0.116272,-0.198438 l 0.09302,-0.117822 q 0.06821,-0.08682 0.08682,-0.15658 0.02015,-0.06976 0.02015,-0.179834 v -0.221692 h -0.910022 v -0.875915 h 0.294556 z m -0.627869,0 v 1.64486 h -0.302307 v -1.64486 z m -0.767395,1.64486 h -1.435571 v -1.609204 q 0.331762,-0.05426 0.609265,-0.05426 0.303857,0 0.488342,0.08992 0.186035,0.08837 0.262,0.237195 0.07596,0.148828 0.07596,0.415478 z m -0.296106,-0.248046 v -0.643372 q 0,-0.181384 -0.04031,-0.285254 -0.04031,-0.10387 -0.16123,-0.165881 -0.120923,-0.06356 -0.347266,-0.06356 -0.131775,0 -0.294555,0.0217 v 1.136365 z"
       id="text27"
       style="font-size:3.175px;-inkscape-font-specification:sans-serif;stroke-width:0.191"
       aria-label="תשלום" />
    <rect
       style="fill:none;fill-opacity:1;stroke:#e6e6e6;stroke-width:0.211181;stroke-dasharray:0.211181, 5.06835;stroke-dashoffset:0;stroke-opacity:1"
       id="rect27"
       width="79.894409"
       height="3.2888186"
       x="32.105591"
       y="55.855591" />
    <rect
       style="fill:none;stroke:#e6e6e6;stroke-width:0.251421;stroke-dasharray:0.251421, 6.0341;stroke-dashoffset:0;stroke-opacity:1"
       id="rect2"
       width="12.748579"
       height="3.248579"
       x="11.12571"
       y="55.875713" />
    <rect
       style="fill:#f0f8ff;stroke:#e6e6e6;stroke-width:0.212575;stroke-dasharray:0.212575, 5.1018;stroke-dashoffset:0;stroke-opacity:1;fill-opacity:1"
       id="rect3"
       width="103.78743"
       height="9.787425"
       x="11.106288"
       y="115.10629" />
    <rect
       style="fill:#f0f8ff;fill-opacity:1;stroke:#e6e6e6;stroke-width:0.305064;stroke-dasharray:0.305064, 7.32155;stroke-dashoffset:0;stroke-opacity:1"
       id="rect4"
       width="23.847467"
       height="5.6949358"
       x="80.152534"
       y="130.15253" />
    <rect
       style="fill:#f0f8ff;fill-opacity:1;stroke:#e6e6e6;stroke-width:0.305064;stroke-dasharray:0.305064, 7.32155;stroke-dashoffset:0;stroke-opacity:1"
       id="rect4-8"
       width="23.847467"
       height="5.6949358"
       x="11.152532"
       y="130.15253" />
    <path
       d="m 36.950245,132.88447 v -0.31781 h 0.31781 v 0.31781 z m 0,1.3286 v -0.31781 h 0.31781 v 0.31781 z m 8.914185,0 h -0.296106 v -0.89141 q 0,-0.18139 -0.04031,-0.28526 -0.04031,-0.10387 -0.16123,-0.16588 -0.120923,-0.0636 -0.347266,-0.0636 -0.131775,0 -0.294556,0.0217 v 1.38441 h -0.296106 v -1.6092 q 0.331763,-0.0543 0.609265,-0.0543 0.303858,0 0.488343,0.0899 0.186035,0.0884 0.261999,0.23719 0.07596,0.14883 0.07596,0.41548 z m -3.654041,-0.0387 0.05116,-0.2217 q 0.08062,0.0279 0.175183,0.0279 0.106971,0 0.147278,-0.0465 0.04031,-0.0481 0.04031,-0.17208 v -0.94878 q -0.133325,0 -0.327112,0.0279 l -0.02635,-0.24649 q 0.353467,-0.045 0.717786,-0.045 0.368969,0 0.567407,0.062 0.198437,0.062 0.302307,0.22789 0.10542,0.16434 0.10542,0.48525 v 0.88831 h -0.296106 v -0.80925 q 0,-0.24029 -0.03721,-0.35192 -0.03566,-0.11162 -0.15813,-0.18138 -0.122473,-0.0698 -0.404626,-0.0698 l -0.148828,0.003 v 0.99684 q 0,0.15503 -0.02946,0.23719 -0.02791,0.0822 -0.119373,0.13488 -0.08992,0.0527 -0.269751,0.0527 -0.145727,0 -0.289904,-0.0512 z m -0.302307,-1.60611 v 0.85111 h -0.302308 v -0.85111 z m -2.072742,0.68678 -0.254248,-0.68678 h 0.289905 l 0.120923,0.36277 q 0.07286,-0.15968 0.227893,-0.26975 0.155029,-0.11162 0.333313,-0.11162 0.189135,0 0.325561,0.0977 0.137976,0.0961 0.199988,0.28215 0.06201,0.18604 0.06201,0.55966 v 0.72398 h -0.848011 v -0.24804 h 0.548804 v -0.48214 q 0,-0.27286 -0.0186,-0.39688 -0.01705,-0.12557 -0.09147,-0.20309 -0.07286,-0.0791 -0.184485,-0.0791 -0.173632,0 -0.296106,0.17983 -0.120922,0.17829 -0.206189,0.62012 l -0.116272,0.60926 h -0.299206 l 0.130225,-0.64182 q 0.0186,-0.0915 0.07596,-0.31626 z m -2.057239,-0.65732 q 0.280603,-0.0481 0.545703,-0.0481 0.514698,0 0.711585,0.19069 0.196887,0.19068 0.196887,0.58446 v 0.88831 H 38.93617 v -0.80925 q 0,-0.2465 -0.05736,-0.36122 -0.05736,-0.11627 -0.198437,-0.17518 -0.139527,-0.0605 -0.407727,-0.0605 -0.21084,0 -0.469739,0.0434 z m 0.31471,0.68833 v 0.92707 H 37.796705 V 133.286 Z"
       id="text10"
       style="font-size:3.175px;stroke-width:0.218;stroke-dasharray:0.218, 5.232"
       aria-label=":חתימה" />
    <path
       d="m 105.34743,132.649 v -0.31781 h 0.31781 v 0.31781 z m 0,1.3286 v -0.31781 h 0.31781 v 0.31781 z m 6.46162,-0.0388 0.0512,-0.22169 q 0.0806,0.0279 0.17518,0.0279 0.10697,0 0.14728,-0.0465 0.0403,-0.0481 0.0403,-0.17209 v -0.94877 q -0.13333,0 -0.32712,0.0279 l -0.0263,-0.2465 q 0.35347,-0.045 0.71779,-0.045 0.36896,0 0.5674,0.062 0.19844,0.062 0.30231,0.22789 0.10542,0.16433 0.10542,0.48524 v 0.88832 h -0.29611 v -0.80925 q 0,-0.2403 -0.0372,-0.35192 -0.0357,-0.11162 -0.15813,-0.18138 -0.12248,-0.0698 -0.40463,-0.0698 l -0.14883,0.003 v 0.99684 q 0,0.15503 -0.0294,0.2372 -0.0279,0.0822 -0.11938,0.13487 -0.0899,0.0527 -0.26975,0.0527 -0.14572,0 -0.2899,-0.0512 z m -0.14728,0.0388 h -0.36587 l -0.62787,-0.88832 q -0.14572,0.0791 -0.17208,0.31936 l -0.0667,0.56896 h -0.30696 l 0.0667,-0.56896 q 0.0465,-0.39687 0.32246,-0.5364 l -0.38292,-0.5395 h 0.36432 l 0.5271,0.73639 q 0.0961,-0.0636 0.13332,-0.14263 0.0388,-0.0806 0.0605,-0.26355 l 0.0387,-0.33021 h 0.30696 l -0.0372,0.33951 q -0.0248,0.21859 -0.0992,0.35967 -0.0729,0.13953 -0.25425,0.2496 z m -3.25716,-1.62936 q 0.23874,-0.0341 0.43873,-0.0341 0.49919,0 0.69453,0.19378 0.19689,0.19224 0.19689,0.58136 v 0.88832 h -0.29456 v -0.80925 q 0,-0.2248 -0.0481,-0.33952 -0.0481,-0.11472 -0.18448,-0.18603 -0.13643,-0.0713 -0.38138,-0.0713 -0.16588,0 -0.39687,0.031 z m -0.30231,-0.0155 v 0.85111 h -0.30231 v -0.85111 z m -2.09755,0.0155 q 0.23875,-0.0341 0.43718,-0.0341 0.46199,0 0.67748,0.17673 0.21549,0.17518 0.21549,0.59841 v 1.52084 h -0.2961 v -1.44177 q 0,-0.2682 -0.0698,-0.38137 -0.0682,-0.11318 -0.21084,-0.16434 -0.14262,-0.0512 -0.33176,-0.0512 -0.16743,0 -0.39687,0.031 z"
       id="text10-1"
       style="font-size:3.175px;stroke-width:0.218;stroke-dasharray:0.218, 5.232"
       aria-label=":תאריך" />
    <path
       d="m 12.854925,31.797527 -0.306738,-0.86485 h 0.349756 l 0.145888,0.456828 q 0.0879,-0.201082 0.274942,-0.339693 0.187035,-0.140562 0.402126,-0.140562 0.228182,0 0.392773,0.122994 0.166461,0.121042 0.241276,0.35531 0.07481,0.234271 0.07481,0.704766 v 0.911704 h -1.023084 v -0.312361 h 0.662105 V 32.08451 q 0,-0.343597 -0.02244,-0.499777 -0.02057,-0.158133 -0.110354,-0.255747 -0.0879,-0.09956 -0.222572,-0.09956 -0.209479,0 -0.357236,0.226462 -0.145888,0.224511 -0.248757,0.780904 l -0.140277,0.767237 h -0.360979 l 0.15711,-0.808235 q 0.02244,-0.115186 0.09164,-0.398261 z m -2.281831,-0.86485 h 1.619725 v 0.515396 q 0,0.220605 -0.03928,0.355311 -0.03741,0.132753 -0.136535,0.273316 l -0.09913,0.140562 q -0.153369,0.21475 -0.153369,0.454878 v 0.331882 h -0.357238 v -0.279171 q 0,-0.212797 0.03554,-0.343598 0.03741,-0.132754 0.153369,-0.28503 l 0.110354,-0.148372 q 0.08042,-0.107379 0.104744,-0.193273 0.02618,-0.08785 0.02618,-0.230367 v -0.279172 h -1.264358 z m 0.02992,2.867867 v -1.963972 h 0.342275 v 1.963972 z M 10.00263,30.932677 v 2.071345 H 9.6379165 v -2.071345 z m -2.5305881,0.01952 q 0.2880344,-0.04295 0.52931,-0.04295 0.6022544,0 0.8379178,0.244033 0.2375358,0.242079 0.2375358,0.732097 V 33.00402 H 8.7214428 v -1.019078 q 0,-0.283078 -0.057982,-0.427546 -0.057982,-0.144466 -0.2225722,-0.23427 -0.164591,-0.0898 -0.4601069,-0.0898 -0.2001277,0 -0.4788104,0.03905 z"
       id="text11"
       style="font-size:3.175px;stroke-width:0.268703;stroke-dasharray:0.268703, 6.44888"
       aria-label="מקור" />
    <path
       d="m 116.8125,124.03585 -1.07812,-5.46093 h 1.17773 l 0.91992,5.11523 q 0.9961,-0.39258 1.24805,-1.125 0.25195,-0.73828 0.25195,-1.85156 l 0.0586,-2.13867 h 1.13085 l -0.0586,1.64648 q -0.0469,1.18945 -0.10547,1.66992 -0.0527,0.48047 -0.30469,1.06055 -0.24609,0.57422 -0.72656,1.00195 -0.48047,0.42188 -1.41211,0.77344 -0.92578,0.35156 -2.64843,0.63867 l -0.15821,-0.97265 q 1.04883,-0.15235 1.70508,-0.35743 z m -2.75977,-5.46093 v 6.21679 h -1.14257 v -6.21679 z m -8.41406,3.13476 q 0,-1.48828 0.79688,-2.39648 0.80273,-0.9082 2.12109,-0.9082 0.78516,0 1.41797,0.3457 0.63281,0.33984 1.06641,1.08984 0.43359,0.75 0.43359,1.86914 0,0.91992 -0.32813,1.64649 -0.32812,0.72656 -0.99023,1.17187 -0.66211,0.44531 -1.59961,0.44531 -1.31836,0 -2.12109,-0.89062 -0.79688,-0.89648 -0.79688,-2.37305 z m 1.22461,0 q 0,1.10157 0.44531,1.7168 0.44532,0.60937 1.24805,0.60937 0.86719,0 1.2832,-0.6621 0.42188,-0.66211 0.42188,-1.67579 0,-1.125 -0.45117,-1.75195 -0.45117,-0.62695 -1.25391,-0.62695 -0.84961,0 -1.27148,0.67969 -0.42188,0.67382 -0.42188,1.71093 z m -7.470702,-3.13476 h 5.074222 v 1.54687 q 0,0.66211 -0.12305,1.06641 -0.11719,0.39844 -0.42773,0.82031 l -0.31055,0.42188 q -0.48047,0.64453 -0.48047,1.36523 v 0.99609 h -1.11914 v -0.83789 q 0,-0.63867 0.11133,-1.03125 0.11719,-0.39843 0.48047,-0.85547 l 0.3457,-0.44531 q 0.25195,-0.32226 0.32812,-0.58008 0.082,-0.26367 0.082,-0.6914 v -0.83789 h -3.960942 z m 0.09375,8.60742 v -5.89453 h 1.072262 v 5.89453 z m -10.089844,-6.01172 -0.960937,-2.5957 h 1.095703 l 0.457031,1.37109 q 0.275391,-0.60351 0.861328,-1.01953 0.585938,-0.42188 1.259766,-0.42188 0.714844,0 1.230469,0.36915 0.521484,0.36328 0.755859,1.0664 0.234375,0.70313 0.234375,2.11524 v 2.73632 H 91.125 v -0.9375 h 2.074219 v -1.82226 q 0,-1.03125 -0.07031,-1.5 -0.06445,-0.47461 -0.345703,-0.76758 -0.275391,-0.29883 -0.697266,-0.29883 -0.65625,0 -1.11914,0.67969 -0.457031,0.67383 -0.779297,2.34375 l -0.439453,2.30273 h -1.13086 l 0.492188,-2.42578 q 0.07031,-0.3457 0.287109,-1.19531 z m -2.33789,-2.5957 v 6.21679 h -1.142578 v -6.21679 z m -7.927735,0.0586 q 0.902344,-0.12891 1.658203,-0.12891 1.886719,0 2.625,0.73243 0.744141,0.72656 0.744141,2.19726 v 3.35742 h -1.113281 v -3.05859 q 0,-0.84961 -0.181641,-1.2832 -0.18164,-0.4336 -0.697265,-0.70313 -0.515625,-0.26953 -1.441407,-0.26953 -0.626953,0 -1.5,0.11719 z m -6.84375,-0.0586 0.02344,1.00781 q 0.03516,1.55273 0.134765,2.15039 0.621094,0 1.119141,-0.31055 0.498047,-0.31054 0.498047,-1.17773 l 0.123047,-1.66992 h 1.125 l -0.140625,1.95703 q -0.03516,0.49805 -0.111328,0.75586 -0.07617,0.25781 -0.316407,0.54492 -0.234375,0.28711 -0.75,0.50391 -0.509765,0.21093 -1.376953,0.28125 0.146485,0.63281 0.679688,1.01367 0.533203,0.38086 1.3125,0.38086 0.720703,0 1.236328,-0.33985 0.515625,-0.3457 0.761719,-0.88476 0.246093,-0.54492 0.328125,-1.54688 l 0.251953,-2.66601 h 1.125 l -0.210938,2.30273 q -0.123047,1.29492 -0.439453,2.15625 -0.316406,0.86133 -1.101562,1.39453 -0.779297,0.53321 -2.015625,0.53321 -1.095703,0 -1.839844,-0.52735 -0.738281,-0.5332 -1.107422,-1.51758 -0.363281,-0.98437 -0.363281,-2.625 l -0.08203,-1.71679 z m -8.068359,0.11133 q 1.060547,-0.18165 2.0625,-0.18165 1.945312,0 2.689453,0.72071 0.744141,0.7207 0.744141,2.20898 v 3.35742 h -1.119141 v -3.05859 q 0,-0.93164 -0.216797,-1.36523 -0.216797,-0.43946 -0.75,-0.66211 -0.527344,-0.22852 -1.541015,-0.22852 -0.796875,0 -1.775391,0.16406 z m 1.189453,2.60156 v 3.5039 h -1.119141 v -3.5039 z m -11.185547,-0.11719 -0.960937,-2.5957 h 1.095703 l 0.457031,1.37109 q 0.275391,-0.60351 0.861328,-1.01953 0.585938,-0.42188 1.259766,-0.42188 0.714844,0 1.230469,0.36915 0.521484,0.36328 0.755859,1.0664 0.234375,0.70313 0.234375,2.11524 v 2.73632 h -3.205078 v -0.9375 h 2.074219 v -1.82226 q 0,-1.03125 -0.07031,-1.5 -0.06445,-0.47461 -0.345703,-0.76758 -0.275391,-0.29883 -0.697266,-0.29883 -0.65625,0 -1.11914,0.67969 -0.457032,0.67383 -0.779297,2.34375 l -0.439453,2.30273 h -1.13086 l 0.492188,-2.42578 q 0.07031,-0.3457 0.287109,-1.19531 z m -7.792969,0.53906 q 0,-1.48828 0.796875,-2.39648 0.802735,-0.9082 2.121094,-0.9082 0.785156,0 1.417969,0.3457 0.632812,0.33984 1.066406,1.08984 0.433594,0.75 0.433594,1.86914 0,0.91992 -0.328125,1.64649 -0.328125,0.72656 -0.990234,1.17187 -0.66211,0.44531 -1.59961,0.44531 -1.318359,0 -2.121094,-0.89062 -0.796875,-0.89648 -0.796875,-2.37305 z m 1.22461,0 q 0,1.10157 0.445312,1.7168 0.445313,0.60937 1.248047,0.60937 0.867188,0 1.283203,-0.6621 0.421875,-0.66211 0.421875,-1.67579 0,-1.125 -0.451172,-1.75195 -0.451171,-0.62695 -1.253906,-0.62695 -0.849609,0 -1.271484,0.67969 -0.421875,0.67382 -0.421875,1.71093 z M 40.060547,118.78 q 1.013672,-0.31055 2.121094,-0.31055 1.365234,0 2.279296,0.80273 0.914063,0.80274 0.914063,2.32617 0,1.50586 -0.9375,2.39649 -0.9375,0.89062 -2.613281,0.89062 -1.142578,0 -1.804688,-0.41601 l 0.269531,-0.92578 q 0.574219,0.36914 1.458985,0.36914 1.001953,0 1.722656,-0.56836 0.726563,-0.57422 0.726563,-1.72266 0,-1.00781 -0.56836,-1.61719 -0.568359,-0.61523 -1.517578,-0.61523 -0.492187,0 -0.972656,0.11133 v 1.13672 q 0,0.7207 0.720703,0.7207 0.292969,0 0.492187,-0.0703 l 0.117188,0.81445 q -0.339844,0.14649 -0.791016,0.14649 -0.761718,0 -1.189453,-0.41016 -0.427734,-0.41602 -0.427734,-1.22461 z m -6.591797,-0.14649 q 0.902344,-0.12891 1.658203,-0.12891 1.886719,0 2.625,0.73243 0.744141,0.72656 0.744141,2.19726 v 3.35742 h -1.113282 v -3.05859 q 0,-0.84961 -0.18164,-1.2832 -0.181641,-0.4336 -0.697266,-0.70313 -0.515625,-0.26953 -1.441406,-0.26953 -0.626953,0 -1.5,0.11719 z"
       id="text12"
       style="white-space:pre"
       transform="matrix(0.26458333,0,0,0.26458333,19.451714,-5.7128522)"
       aria-label="עוסק מורשה מספר" />
    <text
       xml:space="preserve"
       style="font-size:3.175px;text-align:start;writing-mode:lr-tb;direction:ltr;text-anchor:start;fill:#000000;stroke-width:0.264583"
       x="7.2322593"
       y="27.622978"
       id="text13"><tspan
         sodipodi:role="line"
         id="tspan13"
         style="stroke-width:0.264583"
         x="7.2322593"
         y="27.622978">557232600</tspan></text>
    <text
       xml:space="preserve"
       style="font-size:3.175px;text-align:start;writing-mode:lr-tb;direction:ltr;text-anchor:start;fill:#000000;stroke-width:0.264583"
       x="26.987499"
       y="27.516665"
       id="text14"><tspan
         sodipodi:role="line"
         id="tspan14"
         style="stroke-width:0.264583"
         x="26.987499"
         y="27.516665">:</tspan></text>
  </g>
</svg>
